<svg id="Layer_1" data-name="Layer 1" xmlns="http://www.w3.org/2000/svg" viewBox="0 0 1000 1000"><defs><style>.cls-1{fill:#56c8e4;}.cls-2{fill:#fff;}</style></defs><title>car_next_door_circle</title><path class="cls-1" d="M500,994.92c273.33,0,494.94-221.59,494.94-494.94S773.33,5.08,500,5.08,5.07,226.65,5.07,500,226.65,994.92,500,994.92"/><path class="cls-2" d="M766.39,685.65c0-22.47-18.53-40.59-41.2-40.59H671.14a3.59,3.59,0,0,0-3.6,3.58v125a3.58,3.58,0,0,0,3.6,3.57h17.39a3.71,3.71,0,0,0,3.6-3.57V725.49h21l25.13,50a3.26,3.26,0,0,0,3,1.68H761.1c3.22,0,4.53-3,3.22-5.46l-25.9-48C754.86,717.19,766.39,703,766.39,685.65Zm-43.27,19.63H692.31V667.71h30.81c10,0,18.7,8.31,18.7,18.32C741.82,696.59,733.14,705.28,723.12,705.28Z"/><path class="cls-2" d="M582.69,643.17a68,68,0,1,0,68,68.16A67.72,67.72,0,0,0,582.69,643.17Zm-2,111.4a43.37,43.37,0,0,1-43.26-43.24c0-23.79,19.46-43.62,43.26-43.62s43.48,19.83,43.48,43.62S604.53,754.56,580.69,754.56Z"/><path class="cls-2" d="M270.63,645.06h-44.8a3.53,3.53,0,0,0-3.4,3.58v125a3.53,3.53,0,0,0,3.4,3.57h44.8A66.37,66.37,0,0,0,337,711C337,674.7,307.1,645.06,270.63,645.06ZM268.36,754.2H246.81V667.9h21.55c24.57,0,42.51,18.49,42.51,43.05C310.88,735.68,292.93,754.2,268.36,754.2Z"/><path class="cls-2" d="M427.9,643.17c-37.78,0-75.24,30.4-75.24,68.16s37.46,67.8,75.24,67.8a68,68,0,1,0,0-136Zm-4,111.4a43.38,43.38,0,0,1-43.27-43.24c0-23.79,19.48-43.62,43.27-43.62s43.47,19.83,43.47,43.62S447.73,754.56,423.9,754.56Z"/><path class="cls-2" d="M396,610.63H487.3a4.26,4.26,0,0,0,4.27-4.27V588a4.27,4.27,0,0,0-4.27-4.27H420.88V544.49h55.42a4.26,4.26,0,0,0,4.25-4.26V521.62a4.4,4.4,0,0,0-4.25-4.25H420.88V480.58H487.3a4.25,4.25,0,0,0,4.27-4.25V458a4.26,4.26,0,0,0-4.27-4.27H396a4.26,4.26,0,0,0-4.26,4.27V606.37A4.26,4.26,0,0,0,396,610.63Z"/><path class="cls-2" d="M581.3,503.25l-28.72-47.54a4.46,4.46,0,0,0-3.58-2H523c-3.8,0-5.6,3.37-3.8,6.28L564,530.14l-46.66,74.21c-1.8,2.92,0,6.29,4,6.29h24.23a5,5,0,0,0,3.83-2l31.64-51.35h.67l32.07,51.35a4.61,4.61,0,0,0,3.82,2h24.24c3.81,0,5.61-3.15,3.81-6.29L599,530.14,644.13,460c1.8-2.91,0-6.28-3.8-6.28h-26a4.1,4.1,0,0,0-3.58,2l-29.18,47.54Z"/><path class="cls-2" d="M356.94,608.83V458a4.41,4.41,0,0,0-4.27-4.27H332a4.28,4.28,0,0,0-4.28,4.27v92.58h-.22L234.2,451.45h-5.6a4.22,4.22,0,0,0-4.27,4V606.37a4.42,4.42,0,0,0,4.27,4.27H249a4.26,4.26,0,0,0,4.27-4.27V510h.23l93.79,102.92h5.38A4.22,4.22,0,0,0,356.94,608.83Z"/><path class="cls-2" d="M765.07,453.69H667a4.27,4.27,0,0,0-4.26,4.27v18.37a4.26,4.26,0,0,0,4.26,4.25h34.34V606.37a4.41,4.41,0,0,0,4.26,4.27h20.88a4.41,4.41,0,0,0,4.25-4.27V480.58h34.34a4.26,4.26,0,0,0,4.26-4.25V458A4.27,4.27,0,0,0,765.07,453.69Z"/><path class="cls-2" d="M722.67,414.37a4.82,4.82,0,0,0,4.49,2.52h29.4c4.77,0,6.73-4.48,4.77-8.12l-38.38-71.09c24.39-9.81,41.46-30.79,41.46-56.54,0-33.31-27.45-60.19-61.06-60.19H623.21a5.32,5.32,0,0,0-5.33,5.32V411.58a5.32,5.32,0,0,0,5.33,5.31H649a5.51,5.51,0,0,0,5.31-5.31V340.18h31.1ZM654.59,254.54h45.67c14.84,0,27.72,12.3,27.72,27.16,0,15.67-12.88,28.54-27.72,28.54H654.59Z"/><path class="cls-2" d="M318.21,419.69c24.93,0,49-8.67,68.06-27.16,2-2,2.52-5.59.29-7.56l-17.38-17.92a5.16,5.16,0,0,0-7,0c-11.77,9.52-26.06,16-42.86,16-35.85,0-62.75-29.65-62.75-64.64,0-35.28,26.6-65.24,62.45-65.24a66.32,66.32,0,0,1,43.16,16.53c2.24,2.24,5,2.24,7,0L386.28,252a5.18,5.18,0,0,0-.27-7.84c-19-17.08-39.5-26-67.79-26a100.86,100.86,0,0,0-101.13,101C217.08,375.19,262.18,419.69,318.21,419.69Z"/><path class="cls-2" d="M409.64,416.89H434a8.44,8.44,0,0,0,8.13-5.61l13.74-30.23h83.74l13.73,30.23c2,3.92,3.93,5.61,8.14,5.61h24.36c4.2,0,6.44-3.64,4.77-7.29L504.33,221.24a4.76,4.76,0,0,0-4.76-3.08h-2.81a5,5,0,0,0-4.76,3.08L404.88,409.6C403.2,413.25,405.44,416.89,409.64,416.89Zm87.42-128.48h.84l28,61.58h-56.3Z"/></svg>